<svg width="515" height="343" viewBox="0 0 515 343" fill="none" xmlns="http://www.w3.org/2000/svg">
<g clip-path="url(#clip0_403_917)">
<path d="M269.712 129.598C273.134 124.675 278.144 122.69 280.902 125.163C283.661 127.637 283.122 133.633 279.698 138.557C278.355 140.545 276.611 142.139 274.614 143.205L259.883 163.856L251.498 155.799L266.91 136.296C267.36 133.841 268.321 131.544 269.712 129.598Z" fill="#FFB6B6"/>
<path d="M215.43 120.762L236.922 162.247L262.941 141.833L273.407 146.575C273.407 146.575 254.917 192.283 238.974 189.31C223.032 186.337 191.309 145.436 194.95 131.153C198.592 116.87 215.43 120.762 215.43 120.762Z" fill="#FD7E14"/>
<path d="M280.216 107.979L268.206 112.007L276.482 143.834L288.492 139.806L280.216 107.979Z" fill="#FD7E14"/>
<path d="M212.732 121.795L212.989 102.342L202.427 94.8638L190.941 110.82L212.732 121.795Z" fill="#FFB6B6"/>
<path opacity="0.1" d="M212.732 121.795L213.416 102.827L202.427 94.8638L206.16 118.338L212.732 121.795Z" fill="black"/>
<path d="M207.076 104.28C217.45 104.28 225.86 94.7282 225.86 82.9452C225.86 71.1622 217.45 61.6102 207.076 61.6102C196.701 61.6102 188.291 71.1622 188.291 82.9452C188.291 94.7282 196.701 104.28 207.076 104.28Z" fill="#FFB6B6"/>
<path d="M238.384 250.431L235.074 275.984L233.411 288.852L226.482 342.397C217.74 342.086 209.111 341.639 200.614 341.077L201.848 308.473L202.594 288.852L203.083 275.984L203.387 267.884L198.932 248.562C198.932 248.562 197.466 245.467 195.975 241.342C195.712 240.611 195.444 239.845 195.188 239.06C193.339 233.445 191.872 226.76 193.715 223.266C193.804 223.103 193.894 222.947 193.995 222.798C194.83 221.573 196.994 220.658 199.934 219.981C201.729 219.561 203.822 219.236 206.076 218.985C212.898 218.22 221.228 218.105 227.603 218.179C233.369 218.234 237.531 218.437 237.531 218.437L237.591 220.597L237.597 220.807L237.638 222.446L237.74 226.361L237.996 236.032L238.259 245.859L238.384 250.431Z" fill="#2F2E41"/>
<path d="M238.259 245.859L228.974 267.011L223.101 275.984L214.687 288.852L201.848 308.473L181.491 339.593C171.699 338.726 162.099 337.69 152.731 336.512L177.65 288.852L184.377 275.984L190.87 263.57L194.997 244.153C194.997 244.153 194.997 243.116 195.063 241.457C195.092 240.76 195.134 239.947 195.188 239.06C195.551 233.134 196.655 223.686 199.934 219.981C200.376 219.473 200.859 219.08 201.383 218.809C202.367 218.308 204.007 218.43 206.076 218.985C211.192 220.374 218.921 224.465 225.862 228.528C230.662 231.346 235.08 234.143 237.996 236.032L238.259 245.859Z" fill="#2F2E41"/>
<path d="M193.356 106.705L214.696 118.338C214.696 118.338 237.316 194.443 237.316 198.321C237.316 202.199 243.718 204.623 239.877 208.986C236.036 213.348 247.026 217.043 241.104 220.528C235.182 224.013 198.239 243.074 194.131 241.355C182.801 236.614 194.611 219.194 194.611 219.194C194.611 219.194 186.101 211.409 187.381 207.531C188.661 203.654 179.699 129.488 179.699 129.488L193.356 106.705Z" fill="#FD7E14"/>
<path d="M208.656 87.9039L213.371 90.9002C213.371 90.9002 210.479 81.1875 212.59 76.9036C214.7 72.6198 213.47 69.5879 213.47 69.5879C213.47 69.5879 220.998 72.4032 222.98 68.8818C224.963 65.3604 225.618 63.527 219.161 60.5486C212.705 57.5702 215.134 59.6764 215.134 59.6764C215.134 59.6764 209.62 57.2973 210.834 58.3504C212.049 59.4035 206.263 56.5705 207.078 57.9321C207.893 59.2938 203.45 56.7514 204.265 58.1131C205.08 59.4748 193.972 61.415 196.257 62.305C198.542 63.195 186.89 64.2274 187.241 74.575C187.591 84.9226 181.245 87.8577 185.928 90.8653C190.61 93.8729 197.145 106.745 197.145 106.745L202.657 102.49C202.657 102.49 201 85.8511 208.656 87.9039Z" fill="#2F2E41"/>
<path d="M168.639 198.772C174.116 197.966 178.189 194.103 177.737 190.145C177.285 186.186 172.479 183.632 167.001 184.439C164.809 184.727 162.709 185.607 160.878 187.006L137.711 190.753L139.491 203.063L162.14 198.062C164.225 198.885 166.454 199.128 168.639 198.772Z" fill="#A0616A"/>
<path d="M97.8158 144.753L104.17 198.48C104.17 198.48 105.918 210.035 121.828 208.334C137.739 206.632 158.647 199.624 158.647 199.624L157.286 187.078L139.516 189.265C139.516 189.265 131.221 186.979 129.574 188.52C127.927 190.062 128.683 191.866 127.055 189.622C125.426 187.378 126.244 185.984 124.818 187.947C123.392 189.91 123.103 193.321 122.249 189.096C121.394 184.87 119.806 185.729 119.806 185.729L118.901 146.374C118.901 146.374 114.128 127.6 105.409 133.877C96.6903 140.154 97.8158 144.753 97.8158 144.753Z" fill="#E6E6E6"/>
<path d="M125.667 101.888H94.1961V154.703H125.667V101.888Z" fill="#2F2E41"/>
<path d="M101.26 138.599L102.362 123.472H117.016L120.265 139.499L101.26 138.599Z" fill="#A0616A"/>
<path opacity="0.1" d="M101.26 138.599L102.362 123.472H117.016L120.265 139.499L101.26 138.599Z" fill="black"/>
<path d="M127.808 113.006C129.226 103.088 123.295 93.7433 114.563 92.1338C105.831 90.5243 97.6027 97.2597 96.1857 107.178C94.7686 117.096 100.699 126.441 109.431 128.05C118.164 129.66 126.391 122.924 127.808 113.006Z" fill="#A0616A"/>
<path d="M116.038 90.9516C116.038 90.9516 116.038 83.4828 109.931 85.0832C103.825 86.6837 101.946 89.3511 101.946 89.3511C101.946 89.3511 99.5977 93.619 95.8401 94.1525C92.0824 94.686 88.7944 106.956 89.2641 109.624C89.7338 112.291 92.0824 119.226 88.7944 122.427C85.5064 125.628 80.8093 130.43 82.2184 135.231C83.6276 140.032 87.855 152.303 87.855 152.303C87.855 152.303 76.0641 154.26 77.0276 162.618C77.0276 162.618 82.6882 157.638 90.2035 157.638C97.7189 157.638 96.7795 142.152 96.7795 142.152C96.7795 142.152 97.2492 132.564 98.6583 129.896C100.067 127.229 98.1886 112.291 105.234 104.289C112.28 96.2865 116.038 90.9516 116.038 90.9516Z" fill="#2F2E41"/>
<path d="M114.159 89.3511C114.159 89.3511 123.083 91.485 126.371 101.621C129.659 111.758 127.999 113.644 127.999 113.644C127.999 113.644 128.726 119.747 132.715 121.888C136.705 124.028 133.417 133.097 133.417 133.097C133.417 133.097 134.356 142.166 147.039 145.367C159.721 148.568 131.135 173.115 131.135 173.115C131.135 173.115 133.19 161.529 120.038 160.996C106.886 160.462 122.614 133.097 122.614 133.097L124.023 115.492C124.023 115.492 121.204 95.2194 112.75 92.552C104.295 89.8845 114.159 89.3511 114.159 89.3511Z" fill="#2F2E41"/>
<path d="M136.899 250.919L133.655 275.984L131.992 288.852L129.171 310.62L126.315 332.678C122.934 332.123 119.594 331.547 116.297 330.951C110.632 329.929 105.086 328.852 99.66 327.714L100.715 299.723L101.127 288.852L101.616 275.984L101.902 268.365L97.4418 249.043C97.4418 249.043 88.2408 229.585 92.5104 223.286C92.7071 223.002 92.9695 222.731 93.3035 222.48C94.3887 221.647 96.1776 220.983 98.4257 220.469C103.739 219.236 111.61 218.789 118.783 218.674C127.99 218.525 136.04 218.924 136.04 218.924L136.088 220.516L136.178 223.97L136.899 250.919Z" fill="#2F2E41"/>
<path d="M136.899 250.919L133.655 275.984L131.992 288.852L129.171 310.62L116.297 330.951C110.632 329.929 105.086 328.852 99.66 327.714C95.6708 326.881 91.7531 326.014 87.895 325.12L100.715 299.723L106.201 288.852L112.689 275.984L115.808 269.808L118.521 264.43L120.507 254.407L122.033 246.72L122.385 244.945C122.385 244.945 122.349 242.155 122.582 238.41C122.94 232.734 123.924 224.851 126.631 221.146C127.156 220.415 127.752 219.852 128.426 219.493C129.833 218.742 132.612 219.256 136.088 220.516L136.178 223.97L136.899 250.919Z" fill="#2F2E41"/>
<path d="M121.319 138.698L120.928 138.572L101.686 132.396L86.3214 156.148L96.5645 205.592L92.7233 225.467C92.7233 225.467 123.879 216.257 136.256 224.013C136.256 224.013 137.11 219.593 136.256 217.44C135.403 215.287 134.122 206.329 135.403 202.325C136.683 198.321 132.842 179.416 132.842 179.416C132.842 179.416 134.122 166.813 128.574 160.511C123.026 154.209 121.319 138.698 121.319 138.698Z" fill="#E6E6E6"/>
<path d="M115.978 270.596C117.357 276.669 121.235 280.784 124.638 279.786C128.041 278.788 129.68 273.056 128.299 266.981C127.777 264.546 126.748 262.288 125.3 260.396L119.168 234.747L108.632 238.272L115.796 263.183C115.334 265.635 115.397 268.177 115.978 270.596Z" fill="#A0616A"/>
<path d="M118.772 160.529C118.772 160.529 112.804 142.212 106.264 143.405C99.723 144.597 93.7599 156.111 93.7599 156.111L98.4881 221.269L111.475 258.452L125.251 252.283L118.096 215.123L118.772 160.529Z" fill="#E6E6E6"/>
<path opacity="0.7" d="M417.143 47.4063V328.222C416.947 328.269 416.75 328.31 416.547 328.344C413.524 328.967 410.459 329.563 407.358 330.145C403.673 330.836 399.934 331.507 396.148 332.15C392.999 332.678 389.821 333.193 386.607 333.688C377.251 335.144 367.632 336.437 357.782 337.561C354.627 337.927 351.443 338.273 348.241 338.598C320.244 341.456 290.489 343 259.636 343C255.265 343 250.924 342.966 246.601 342.905C246.398 342.905 246.201 342.905 246.005 342.898V47.4063H417.143Z" fill="#F2F2F2"/>
<path d="M416.547 140.05V140.883L416.625 140.707C416.619 140.49 416.589 140.273 416.547 140.05ZM246.005 228.528L245.408 227.98V288.852H246.005V342.898C246.201 342.905 246.398 342.905 246.601 342.905V187.472C246.404 187.594 246.207 187.709 246.005 187.824V228.528ZM245.408 46.7291V342.885C245.605 342.892 245.802 342.898 246.005 342.898C246.201 342.905 246.398 342.905 246.601 342.905V48.0836H416.547V328.344C416.75 328.31 416.947 328.269 417.143 328.222C417.34 328.188 417.543 328.148 417.74 328.1V46.7291H245.408Z" fill="#3F3D56"/>
<path d="M260.612 259.733C266.869 259.733 271.942 253.972 271.942 246.865C271.942 239.758 266.869 233.997 260.612 233.997C254.355 233.997 249.282 239.758 249.282 246.865C249.282 253.972 254.355 259.733 260.612 259.733Z" fill="#3F3D56"/>
<path d="M259.145 243.299C263.212 247.542 268.436 248.598 270.814 245.658C273.191 242.718 271.82 236.896 267.751 232.652C266.146 230.931 264.202 229.672 262.081 228.98L244.649 211.25L237.497 220.718L255.441 237.192C256.229 239.535 257.499 241.629 259.145 243.299Z" fill="#FFB6B6"/>
<path d="M208.762 149.224C208.762 149.224 194.98 137.544 190.064 142.586C185.147 147.628 185.66 160.974 185.66 160.974L220.841 212.721L249.55 235.892L258.153 222.203L234.348 195.447L208.762 149.224Z" fill="#FD7E14"/>
<path d="M357.782 265.825V337.562C354.627 337.927 351.443 338.273 348.241 338.598V265.825H357.782Z" fill="#3F3D56"/>
<path d="M9.54084 265.825V298.402C6.20749 296.729 3.02322 295.009 0 293.255V265.825H9.54084Z" fill="#3F3D56"/>
<path d="M354.201 275.985H6.55658V288.854H354.201V275.985Z" fill="#FD7E14"/>
<path d="M431.235 85.7896C431.235 85.7896 424.875 90.0262 426.961 94.216C429.047 98.4058 431.955 104.113 429.982 105.91C428.009 107.707 424.752 115.632 424.752 115.632C424.752 115.632 410.849 113.427 412.154 125.693C413.459 137.959 419.991 139.631 414.393 145.027C408.794 150.423 420.211 156.877 420.211 156.877C420.211 156.877 428.092 154.087 429.89 145.509C431.688 136.931 428.287 152.068 429.428 153.154C430.569 154.239 434.997 161.393 438.131 151.881C441.265 142.37 438.162 138.682 442.303 133.068C446.444 127.454 449.259 118.374 449.136 116.787C449.013 115.2 453.873 100.716 446.392 95.0675C438.911 89.419 431.235 85.7896 431.235 85.7896Z" fill="#2F2E41"/>
<path d="M377.246 219.554C374.057 223.634 369.619 225.073 367.333 222.768C365.047 220.463 365.779 215.287 368.969 211.205C370.224 209.555 371.808 208.27 373.59 207.458L387.292 190.362L394.219 197.836L379.975 213.896C379.476 216.003 378.54 217.943 377.246 219.554Z" fill="#FFB6B6"/>
<path d="M417.315 139.118C417.315 139.118 425.626 130.447 429.132 133.366C432.638 136.285 433.088 145.036 433.088 145.036L413.163 181.488L384.426 208.999L378.004 200.715L403.329 171.235L417.315 139.118Z" fill="#3F3D56"/>
<path d="M434.157 119.472L429.655 137.646H454.364L446.227 115.253L434.157 119.472Z" fill="#FFB6B6"/>
<path opacity="0.1" d="M434.157 119.472L429.655 137.646H454.364L446.227 115.253L434.157 119.472Z" fill="black"/>
<path d="M446.686 179.448L461.175 218.322L412.143 215.572L415.475 179.448H446.686Z" fill="#FFB6B6"/>
<path d="M432.513 128.341L452.958 127.373L466.588 154.465L454.661 198.004L412.92 202.842L417.44 160.852L419.735 137.049L432.513 128.341Z" fill="#3F3D56"/>
<path d="M466.589 254.793C465.605 260.204 464.538 267.62 463.494 275.659C462.951 279.845 462.415 284.2 461.902 288.527C460.578 299.628 459.397 310.552 458.616 317.989C452.128 319.898 445.384 321.72 438.402 323.441L434.794 288.527L433.464 275.659L432.087 262.344L431.467 275.659L430.864 288.527L429.135 325.635C425.396 326.488 421.598 327.308 417.74 328.1C417.543 328.148 417.34 328.188 417.143 328.222C416.947 328.269 416.75 328.31 416.547 328.344C413.524 328.967 410.459 329.563 407.358 330.145L406.845 288.527L406.684 275.659L406.106 228.968L411.145 210.059L412.665 209.903L416.547 209.504L417.143 209.443L417.74 209.375L456.356 205.393L457.644 205.257C457.644 205.257 458.563 207.296 459.827 210.689C459.934 210.973 460.047 211.271 460.161 211.576C461.252 214.556 462.552 218.423 463.738 222.792C465.307 228.535 466.684 235.145 467.143 241.721C467.453 246.185 467.346 250.627 466.589 254.793Z" fill="#2F2E41"/>
<path d="M468.097 237.14C467.738 242.58 464.975 246.78 461.926 246.52C458.878 246.26 456.698 241.639 457.058 236.196C457.176 234.02 457.751 231.907 458.734 230.035L460.513 207.004L470.01 208.182L467.249 230.761C467.976 232.78 468.267 234.967 468.097 237.14Z" fill="#FFB6B6"/>
<path d="M457.052 145.577C457.052 145.577 459.037 132.96 463.383 132.868C467.73 132.777 472.757 139.428 472.757 139.428L476.357 182.138L468.176 223.802L458.648 221.632L463.064 180.752L457.052 145.577Z" fill="#3F3D56"/>
<path d="M440.027 123.421C448.245 123.421 454.907 115.855 454.907 106.521C454.907 97.1868 448.245 89.6201 440.027 89.6201C431.809 89.6201 425.147 97.1868 425.147 106.521C425.147 115.855 431.809 123.421 440.027 123.421Z" fill="#FFB6B6"/>
<path d="M434.323 87.6485C434.323 87.6485 431.843 95.5354 435.811 97.2255C439.779 98.9155 445.235 101.169 444.739 103.986C444.243 106.802 446.227 115.253 446.227 115.253C446.227 115.253 434.323 123.703 442.259 132.153C450.195 140.604 456.147 137.121 454.907 145.341C453.667 153.561 466.068 150.181 466.068 150.181C466.068 150.181 470.532 142.294 467.06 134.407C463.588 126.52 469.54 140.604 471.028 140.604C472.516 140.604 479.956 142.857 476.98 133.28C474.004 123.703 469.54 123.14 469.54 115.816C469.54 108.493 466.564 99.4789 465.572 98.3522C464.58 97.2255 460.116 82.5783 451.187 83.705C442.259 84.8317 434.323 87.6485 434.323 87.6485Z" fill="#2F2E41"/>
<path d="M367.696 196.088L355.686 200.116L363.962 231.943L375.971 227.915L367.696 196.088Z" fill="#FD7E14"/>
<path d="M170.916 168.997L158.906 173.025L167.182 204.852L179.192 200.824L170.916 168.997Z" fill="#FD7E14"/>
<path d="M396.148 265.5V332.15C392.999 332.678 389.821 333.193 386.607 333.688V265.5H396.148Z" fill="#3F3D56"/>
<path d="M515 275.658H393.167V288.526H515V275.658Z" fill="#FD7E14"/>
<path d="M208.024 51.8559C215.954 51.8559 222.382 44.5545 222.382 35.5478C222.382 26.5411 215.954 19.2397 208.024 19.2397C200.094 19.2397 193.665 26.5411 193.665 35.5478C193.665 44.5545 200.094 51.8559 208.024 51.8559Z" fill="#E6E6E6"/>
<path d="M448.517 77.5782C456.447 77.5782 462.876 70.2768 462.876 61.2701C462.876 52.2634 456.447 44.962 448.517 44.962C440.587 44.962 434.158 52.2634 434.158 61.2701C434.158 70.2768 440.587 77.5782 448.517 77.5782Z" fill="#E6E6E6"/>
<path d="M211.951 39.7015C211.182 39.6562 210.413 39.6361 209.644 39.6292C210.154 36.3672 210.665 33.105 211.175 29.8429C211.292 29.0936 211.097 28.3342 210.49 27.9308C209.911 27.546 209.163 27.6752 208.683 28.1956C207.266 29.7352 205.849 31.2748 204.431 32.8145C203.849 33.4466 203.871 34.5725 204.431 35.209C205.013 35.8693 205.956 35.8429 206.539 35.209C206.853 34.8687 207.166 34.5284 207.479 34.1881L206.616 39.7039C205.775 39.7515 204.935 39.8137 204.096 39.9072C203.295 39.9967 202.606 40.6214 202.606 41.6004C202.606 42.535 203.288 43.2732 204.096 43.2936C205.335 43.3249 206.574 43.3562 207.812 43.3875C208.121 43.3953 208.46 43.254 208.734 43.0201C209.806 43.0085 210.879 43.0247 211.951 43.0879C212.756 43.1353 213.442 42.2757 213.442 41.3947C213.442 40.4383 212.759 39.749 211.951 39.7015Z" fill="white"/>
<path d="M323.832 32.6162C331.762 32.6162 338.191 25.3148 338.191 16.3081C338.191 7.30138 331.762 0 323.832 0C315.902 0 309.474 7.30138 309.474 16.3081C309.474 25.3148 315.902 32.6162 323.832 32.6162Z" fill="#FD7E14"/>
<path d="M327.76 20.4618C326.99 20.4165 326.221 20.3964 325.452 20.3895C325.962 17.1274 326.473 13.8653 326.983 10.6031C327.101 9.85382 326.906 9.09445 326.298 8.69104C325.719 8.30623 324.971 8.4355 324.492 8.95581C323.074 10.4955 321.657 12.0351 320.239 13.5747C319.657 14.2069 319.679 15.3328 320.239 15.9692C320.821 16.6296 321.764 16.6032 322.348 15.9692C322.661 15.629 322.974 15.2887 323.287 14.9484L322.424 20.4642C321.584 20.5118 320.743 20.5739 319.905 20.6675C319.103 20.7569 318.414 21.3817 318.414 22.3607C318.414 23.2953 319.097 24.0334 319.905 24.0538C321.143 24.0851 322.382 24.1164 323.621 24.1478C323.929 24.1556 324.268 24.0142 324.542 23.7803C325.615 23.7688 326.687 23.7849 327.76 23.8481C328.564 23.8955 329.25 23.036 329.25 22.1549C329.25 21.1986 328.567 20.5093 327.76 20.4618Z" fill="white"/>
<path d="M112.758 77.5474C120.688 77.5474 127.117 70.246 127.117 61.2393C127.117 52.2326 120.688 44.9312 112.758 44.9312C104.828 44.9312 98.3998 52.2326 98.3998 61.2393C98.3998 70.246 104.828 77.5474 112.758 77.5474Z" fill="#E6E6E6"/>
<path d="M117.126 65.8619C115.891 65.1372 114.544 64.7512 113.19 64.697C114.246 62.7668 114.973 60.5995 115.259 58.3645C115.426 57.0303 115.444 55.6961 114.615 54.6193C113.983 53.793 113.071 53.4747 112.147 53.3731C111.395 53.2918 110.501 53.346 109.791 53.6169C108.545 54.0774 108.133 55.2965 108.163 56.6849C108.193 58.0056 108.372 59.3466 109.153 60.3828C109.69 61.0939 110.471 61.5613 111.288 61.6358C110.537 63.3966 109.457 64.9543 108.092 66.2615C107.525 66.7965 107.543 67.8734 107.972 68.4829C108.438 69.1466 109.231 69.3363 109.898 68.9164C111.652 67.8057 113.846 67.7447 115.623 68.7877C116.339 69.2076 117.239 68.9977 117.662 68.1781C118.056 67.4196 117.847 66.2818 117.126 65.8619ZM112.391 57.1929C112.391 57.3012 112.385 57.4028 112.373 57.5112C112.367 57.5721 112.361 57.6263 112.361 57.6602C112.355 57.694 112.355 57.7211 112.349 57.7279V57.7347C112.325 57.904 112.29 58.0665 112.266 58.2291C112.027 58.1546 111.777 58.1478 111.532 58.2426C111.509 58.2494 111.497 58.2494 111.479 58.2562H111.461C111.413 58.2156 111.377 58.1817 111.473 58.2494C111.419 58.1817 111.389 58.141 111.371 58.1275L111.33 58.0395C111.336 58.0665 111.336 58.0869 111.336 58.0936C111.324 58.0733 111.306 58.0123 111.276 57.904C111.246 57.7821 111.216 57.6534 111.192 57.5247C111.157 57.3216 111.151 57.0574 111.145 56.7594C111.169 56.7594 111.192 56.7526 111.198 56.7526C111.371 56.7391 111.538 56.7323 111.711 56.7323C111.825 56.7323 111.938 56.7459 112.051 56.7526C112.081 56.7662 112.272 56.8136 112.343 56.8339C112.355 56.8475 112.373 56.861 112.385 56.8678C112.397 56.8881 112.403 56.9017 112.421 56.922L112.391 57.1929Z" fill="white"/>
<path d="M450.518 61.0533C451.52 60.1796 452.313 58.8928 452.23 57.4028C452.075 54.6531 449.702 53.4001 447.603 52.9396C446.809 52.7635 445.993 53.1902 445.766 54.118C445.569 54.9511 446.016 56.0279 446.809 56.204C447.149 56.2785 447.489 56.3666 447.829 56.4817C448.002 56.5359 448.175 56.6036 448.342 56.6849C448.39 56.712 448.563 56.8 448.592 56.8204C448.73 56.9016 448.873 56.9964 449.004 57.1048C449.016 57.1251 449.087 57.1996 449.135 57.2538C449.028 57.159 449.23 57.5179 449.23 57.4299C449.242 57.4637 449.248 57.4909 449.254 57.5179V57.5789C449.254 57.5857 449.219 57.7211 449.23 57.7211C449.135 57.8972 449.099 57.9785 449.04 58.0462C448.783 58.3713 448.604 58.4932 448.229 58.6964C447.358 59.1772 446.398 59.4346 445.527 59.9358C444.013 60.8162 445.068 63.5592 446.678 63.0309C446.756 63.0106 446.827 62.9835 446.905 62.9632C446.947 62.9564 447.018 62.9429 447.066 62.9429C447.167 62.9429 447.263 62.9429 447.358 62.9496H447.394C447.591 62.9971 447.787 63.0512 447.972 63.1393C447.996 63.1528 448.032 63.1731 448.062 63.2002C448.145 63.2544 448.235 63.3154 448.318 63.3695L448.414 63.444L448.419 63.4508C448.497 63.5185 448.563 63.5998 448.634 63.6743C448.646 63.6878 448.712 63.7759 448.747 63.8165C448.777 63.8639 448.837 63.952 448.843 63.9656C448.896 64.0671 448.95 64.1755 448.998 64.2838C449.004 64.3042 449.01 64.338 449.016 64.3719C449.028 64.4396 449.046 64.5141 449.063 64.5886C449.058 64.6157 449.069 64.7309 449.069 64.8054C449.069 64.8257 449.069 64.8392 449.075 64.8528C449.058 64.9408 449.034 65.0289 449.016 65.1169C449.01 65.1372 449.01 65.144 449.01 65.1508C448.956 65.2659 448.896 65.3742 448.843 65.4826C448.837 65.4962 448.825 65.5029 448.819 65.5165V65.5233C448.753 65.5978 448.7 65.6655 448.634 65.74C448.592 65.7874 448.539 65.8348 448.491 65.8822C448.455 65.9025 448.36 65.9838 448.336 65.9974C448.252 66.0448 448.175 66.0989 448.091 66.1463H448.086C448.08 66.1531 448.074 66.1531 448.068 66.1531C447.954 66.1937 447.847 66.2276 447.74 66.2615H447.722C447.62 66.2615 447.382 66.2276 447.382 66.2412C447.346 66.2344 447.298 66.2208 447.269 66.2141C447.203 66.1734 447.078 66.0989 447.078 66.0989C445.426 64.9747 443.923 67.9072 445.569 69.0247C448.241 70.8398 451.878 68.4016 452.045 64.9611C452.122 63.3966 451.49 62.0218 450.518 61.0533Z" fill="white"/>
</g>
<defs>
<clipPath id="clip0_403_917">
<rect width="515" height="343" fill="white"/>
</clipPath>
</defs>
</svg>
