<svg width="960" height="779" viewBox="0 0 960 779" fill="none" xmlns="http://www.w3.org/2000/svg">
<path opacity="0.5" d="M879.796 159.232C791.144 97.7628 624.946 90.2509 501.87 49.4529C459.044 35.2504 420.638 16.6754 373.213 7.34579C264.66 -14.0777 142.283 18.9967 56.8609 62.2305C16.1105 82.8466 -21.1561 106.791 -38.0693 135.389C-51.076 157.381 -51.321 180.78 -51.3639 203.749L-52.9746 606.158C-53.143 651.087 -49.7371 700.96 8.7159 732.489C48.9636 754.22 107.433 762.492 163.229 769.429C231.79 777.954 306.224 785.517 371.212 769.987C445.567 752.246 487.269 709.313 551.272 682.139C654.966 638.042 812.671 636.941 895.183 581.439C933.694 555.529 948.485 521.815 955.67 489.059C969.237 427.304 941.323 369.348 944.31 308.839C946.859 257.118 940.489 201.31 879.796 159.232Z" fill="#E7ECFF"/>
</svg>
