<svg width="508" height="328" viewBox="0 0 508 328" fill="none" xmlns="http://www.w3.org/2000/svg">
<g clip-path="url(#clip0_403_777)">
<path d="M197.234 293.881C194.5 294.916 191.565 295.175 188.712 294.634C185.859 294.092 183.183 292.768 180.942 290.788C175.236 285.628 173.447 277.125 171.991 269.253L167.685 245.967L176.7 252.655C183.182 257.465 189.811 262.429 194.3 269.396C198.788 276.362 200.747 285.872 197.141 293.411" fill="#E6E6E6"/>
<path d="M196.463 322.073C197.376 314.912 198.314 307.659 197.674 300.421C197.105 293.993 195.285 287.715 191.58 282.567C189.613 279.84 187.22 277.503 184.508 275.662C183.801 275.181 183.15 276.389 183.854 276.867C188.547 280.063 192.176 284.782 194.219 290.343C196.476 296.528 196.838 303.27 196.45 309.839C196.214 313.813 195.716 317.76 195.214 321.702C195.174 321.88 195.199 322.068 195.283 322.227C195.367 322.386 195.504 322.506 195.666 322.56C195.832 322.608 196.008 322.584 196.158 322.493C196.307 322.402 196.417 322.251 196.463 322.073Z" fill="#F2F2F2"/>
<path d="M187.675 309.401C186.503 311.321 184.892 312.883 182.996 313.937C181.101 314.991 178.986 315.501 176.854 315.419C171.376 315.139 166.81 311.019 162.699 307.108L150.539 295.54L158.587 295.125C164.374 294.827 170.311 294.548 175.823 296.471C181.335 298.394 186.419 303.022 187.427 309.17" fill="#E6E6E6"/>
<path d="M199.042 326.189C194.65 317.817 189.557 308.511 180.455 305.537C177.924 304.713 175.271 304.418 172.637 304.667C171.807 304.744 172.014 306.123 172.843 306.046C177.257 305.651 181.663 306.907 185.319 309.603C188.837 312.183 191.576 315.77 193.894 319.573C195.314 321.903 196.586 324.332 197.858 326.758C198.265 327.533 199.453 326.973 199.042 326.189Z" fill="#F2F2F2"/>
<path d="M316.744 158.461L221.004 243.963C219.799 245.036 218.249 245.551 216.693 245.394C215.136 245.237 213.701 244.421 212.702 243.126L172.343 190.655C171.347 189.357 170.87 187.686 171.015 186.009C171.161 184.332 171.918 182.786 173.12 181.71L268.861 96.2077C270.065 95.1344 271.616 94.6197 273.172 94.7767C274.729 94.9337 276.164 95.7495 277.162 97.0451L317.521 149.516C318.517 150.814 318.995 152.485 318.849 154.162C318.704 155.839 317.947 157.385 316.744 158.461Z" fill="#CCCCCC"/>
<path d="M312.908 155.887L219.368 239.423C218.748 239.976 217.949 240.241 217.147 240.16C216.345 240.079 215.606 239.659 215.092 238.992L176.557 188.892C176.044 188.224 175.798 187.363 175.873 186.499C175.948 185.635 176.338 184.839 176.957 184.284L270.496 100.748C271.117 100.195 271.916 99.9297 272.718 100.011C273.519 100.091 274.259 100.512 274.773 101.179L313.308 151.278C313.821 151.947 314.067 152.808 313.992 153.672C313.917 154.536 313.527 155.332 312.908 155.887Z" fill="white"/>
<path d="M317.22 173.373L297.981 171.433L311.751 159.755L319.168 169.399C319.457 169.767 319.637 170.221 319.683 170.7C319.729 171.18 319.639 171.664 319.426 172.088C319.286 172.376 319.095 172.631 318.863 172.839C318.636 173.041 318.373 173.192 318.091 173.284C317.809 173.375 317.513 173.406 317.22 173.373Z" fill="#CCCCCC"/>
<path d="M278.585 136.242L231.265 178.501C230.976 178.759 230.643 178.953 230.284 179.073C229.925 179.192 229.548 179.234 229.175 179.196C228.801 179.159 228.438 179.042 228.106 178.853C227.774 178.664 227.48 178.407 227.24 178.095C227.001 177.784 226.82 177.424 226.71 177.038C226.599 176.651 226.56 176.245 226.595 175.842C226.63 175.44 226.738 175.048 226.913 174.691C227.089 174.333 227.328 174.016 227.617 173.758L274.937 131.498C275.226 131.24 275.559 131.046 275.918 130.927C276.277 130.807 276.654 130.766 277.027 130.803C277.401 130.841 277.764 130.958 278.096 131.147C278.428 131.335 278.722 131.593 278.962 131.904C279.201 132.216 279.382 132.575 279.492 132.962C279.603 133.348 279.642 133.754 279.607 134.157C279.572 134.56 279.464 134.951 279.288 135.309C279.113 135.667 278.874 135.983 278.585 136.242Z" fill="#CCCCCC"/>
<path d="M255.426 139.921L223.513 168.422C222.929 168.943 222.177 169.193 221.422 169.117C220.667 169.041 219.971 168.645 219.487 168.016C219.004 167.387 218.772 166.577 218.842 165.763C218.913 164.95 219.281 164.2 219.864 163.679L251.778 135.178C252.361 134.657 253.113 134.407 253.868 134.483C254.623 134.559 255.319 134.955 255.803 135.584C256.287 136.213 256.519 137.024 256.448 137.837C256.377 138.65 256.01 139.4 255.426 139.921Z" fill="#CCCCCC"/>
<path d="M205.976 198.209C210.91 198.209 214.909 193.9 214.909 188.584C214.909 183.267 210.91 178.958 205.976 178.958C201.043 178.958 197.043 183.267 197.043 188.584C197.043 193.9 201.043 198.209 205.976 198.209Z" fill="#FD7E14"/>
<path d="M277.035 169.289C278.614 169.289 279.894 167.91 279.894 166.209C279.894 164.508 278.614 163.129 277.035 163.129C275.457 163.129 274.177 164.508 274.177 166.209C274.177 167.91 275.457 169.289 277.035 169.289Z" fill="#E6E6E6"/>
<path d="M284.738 162.409C286.317 162.409 287.597 161.03 287.597 159.329C287.597 157.628 286.317 156.249 284.738 156.249C283.16 156.249 281.88 157.628 281.88 159.329C281.88 161.03 283.16 162.409 284.738 162.409Z" fill="#E6E6E6"/>
<path d="M292.442 155.53C294.02 155.53 295.3 154.151 295.3 152.45C295.3 150.749 294.02 149.37 292.442 149.37C290.863 149.37 289.583 150.749 289.583 152.45C289.583 154.151 290.863 155.53 292.442 155.53Z" fill="#E6E6E6"/>
<path d="M246.879 320.825L253.442 320.825L256.564 293.549L246.878 293.55L246.879 320.825Z" fill="#FFB8B8"/>
<path d="M245.206 318.517L258.13 318.516H258.13C259.212 318.516 260.283 318.746 261.282 319.192C262.282 319.637 263.19 320.291 263.954 321.115C264.719 321.939 265.326 322.918 265.74 323.995C266.154 325.071 266.367 326.225 266.367 327.391V327.679L245.206 327.68L245.206 318.517Z" fill="#2F2E41"/>
<path d="M223.326 320.825L229.889 320.825L233.011 293.549L223.325 293.55L223.326 320.825Z" fill="#FFB8B8"/>
<path d="M221.652 318.517L234.577 318.516H234.577C235.659 318.516 236.73 318.746 237.729 319.192C238.728 319.637 239.636 320.291 240.401 321.115C241.166 321.939 241.773 322.918 242.187 323.995C242.6 325.071 242.814 326.225 242.814 327.391V327.679L221.653 327.68L221.652 318.517Z" fill="#2F2E41"/>
<path d="M229.912 312.48H229.911L224.33 312.478C223.706 312.48 223.105 312.22 222.656 311.753C222.207 311.286 221.944 310.648 221.924 309.976L221.748 304.715C220.337 262.643 218.879 219.138 227.913 199.584L227.984 199.43L257.897 198.264L263.902 257.623C264.159 260.155 264.065 262.714 263.624 265.216L255.685 310.292C255.578 310.903 255.27 311.453 254.819 311.84C254.367 312.227 253.801 312.427 253.224 312.402L246.956 312.183C246.627 312.169 246.305 312.083 246.009 311.93C245.713 311.777 245.449 311.56 245.233 311.293C245.017 311.026 244.855 310.714 244.755 310.377C244.655 310.04 244.62 309.684 244.653 309.332L249.577 267.641C249.745 265.842 249.593 264.024 249.13 262.286L243.006 239.217C242.956 239.027 242.846 238.86 242.695 238.746C242.544 238.633 242.362 238.578 242.178 238.592C241.994 238.606 241.82 238.688 241.686 238.823C241.551 238.958 241.464 239.14 241.439 239.336L232.298 310.241C232.216 310.861 231.93 311.428 231.492 311.839C231.053 312.25 230.493 312.477 229.912 312.48Z" fill="#2F2E41"/>
<path d="M233.489 138.918C240.75 138.918 246.637 132.575 246.637 124.751C246.637 116.927 240.75 110.584 233.489 110.584C226.228 110.584 220.342 116.927 220.342 124.751C220.342 132.575 226.228 138.918 233.489 138.918Z" fill="#FFB8B8"/>
<path d="M256.495 202.646H229.289C228.943 202.646 228.602 202.565 228.287 202.41C227.973 202.255 227.693 202.029 227.467 201.748C227.241 201.466 227.073 201.135 226.977 200.777C226.88 200.419 226.855 200.044 226.905 199.675L228.249 189.756L220.357 166.365C219.542 163.95 219.239 161.369 219.471 158.812C219.702 156.254 220.462 153.785 221.695 151.586C222.927 149.386 224.601 147.512 226.593 146.1C228.586 144.688 230.846 143.775 233.209 143.427C236.575 142.921 240.003 143.59 242.991 145.335C245.979 147.081 248.37 149.811 249.814 153.126L251.548 157.101L258.863 199.577C258.928 199.951 258.915 200.337 258.826 200.705C258.736 201.074 258.573 201.417 258.347 201.71C258.121 202.003 257.838 202.238 257.518 202.4C257.197 202.562 256.848 202.646 256.495 202.646Z" fill="#FD7E14"/>
<path d="M199.064 227.527C199.883 227.322 200.65 226.926 201.312 226.367C201.973 225.808 202.513 225.099 202.893 224.291C203.273 223.483 203.484 222.595 203.511 221.69C203.538 220.784 203.38 219.883 203.049 219.051L224.248 167.443L212.121 164.152L195.097 215.915C193.835 216.607 192.853 217.774 192.337 219.194C191.82 220.614 191.805 222.189 192.294 223.62C192.783 225.051 193.743 226.239 194.99 226.959C196.238 227.679 197.688 227.881 199.064 227.527Z" fill="#FFB8B8"/>
<path d="M221.379 176.673L209.584 170.724C209.249 170.555 208.951 170.309 208.711 170.005C208.471 169.701 208.295 169.344 208.195 168.96C208.095 168.575 208.073 168.172 208.13 167.778C208.187 167.383 208.323 167.007 208.527 166.674L215.695 155.009C216.509 153.165 217.969 151.744 219.753 151.058C221.538 150.371 223.503 150.474 225.217 151.345C226.931 152.216 228.254 153.784 228.897 155.705C229.541 157.626 229.451 159.743 228.648 161.593L224.942 174.953C224.836 175.335 224.654 175.689 224.41 175.989C224.165 176.289 223.864 176.529 223.526 176.692C223.188 176.855 222.821 176.938 222.45 176.935C222.08 176.931 221.714 176.842 221.379 176.673Z" fill="#FD7E14"/>
<path d="M287.496 94.7246C287.752 95.5875 287.83 96.5003 287.723 97.3988C287.616 98.2974 287.328 99.1597 286.878 99.9252C286.429 100.691 285.829 101.341 285.121 101.829C284.413 102.318 283.614 102.633 282.781 102.753L252.5 148.802L243.666 139.264L276.209 96.9987C276.115 95.477 276.542 93.9708 277.409 92.7656C278.277 91.5604 279.524 90.7398 280.915 90.4595C282.307 90.1792 283.745 90.4586 284.958 91.2447C286.171 92.0307 287.074 93.2689 287.496 94.7246Z" fill="#FFB8B8"/>
<path d="M259.502 143.397C259.545 143.794 259.509 144.195 259.395 144.575C259.281 144.955 259.092 145.304 258.841 145.598L250.089 155.871C249.027 157.562 247.385 158.73 245.523 159.119C243.662 159.508 241.734 159.086 240.161 157.946C238.589 156.805 237.5 155.039 237.134 153.035C236.768 151.03 237.154 148.951 238.208 147.253L243.836 134.646C243.996 134.286 244.227 133.968 244.512 133.713C244.797 133.458 245.13 133.272 245.488 133.168C245.845 133.064 246.22 133.044 246.585 133.11C246.95 133.176 247.298 133.326 247.605 133.55L258.387 141.42C258.694 141.643 258.953 141.936 259.145 142.277C259.338 142.618 259.459 143 259.502 143.397Z" fill="#FD7E14"/>
<path d="M250.764 118.821C250.756 117.539 250.59 116.264 250.272 115.028C248.154 106.594 240.334 101.532 232.487 102.802C230.961 102.331 229.381 102.092 227.793 102.094C223.754 102.094 219.848 103.65 216.781 106.481C213.714 109.313 211.687 113.233 211.067 117.533L204.728 161.504H238.987L244.519 123.132C244.725 121.706 244.773 120.259 244.663 118.821H250.764Z" fill="#2F2E41"/>
<path d="M293.345 328H180.396C180.254 328 180.118 327.939 180.018 327.831C179.917 327.723 179.861 327.576 179.861 327.423C179.861 327.27 179.917 327.124 180.018 327.015C180.118 326.907 180.254 326.846 180.396 326.846H293.345C293.487 326.846 293.623 326.907 293.723 327.015C293.823 327.124 293.88 327.27 293.88 327.423C293.88 327.576 293.823 327.723 293.723 327.831C293.623 327.939 293.487 328 293.345 328Z" fill="#CCCCCC"/>
<path d="M407.134 44.7988C407.917 44.7175 408.707 44.8224 409.449 45.1059C410.19 45.3894 410.865 45.8447 411.426 46.4396C411.987 47.0346 412.42 47.7548 412.694 48.5495C412.968 49.3443 413.078 50.1941 413.015 51.0393L430.523 59.3424L422.171 65.1513L406.825 56.376C405.515 56.1672 404.321 55.4476 403.47 54.3535C402.618 53.2595 402.169 51.867 402.207 50.4399C402.245 49.0129 402.768 47.6504 403.676 46.6107C404.584 45.571 405.814 44.9263 407.134 44.7988Z" fill="#A0616A"/>
<path d="M477.756 34.4412C485.018 34.4412 490.904 28.0985 490.904 20.2744C490.904 12.4503 485.018 6.10754 477.756 6.10754C470.495 6.10754 464.609 12.4503 464.609 20.2744C464.609 28.0985 470.495 34.4412 477.756 34.4412Z" fill="#A0616A"/>
<path d="M453.961 222.279L447.399 222.278L444.277 195.002L453.963 195.003L453.961 222.279Z" fill="#A0616A"/>
<path d="M455.635 229.133L434.474 229.132V228.844C434.474 227.679 434.687 226.525 435.101 225.448C435.515 224.371 436.122 223.393 436.887 222.569C437.652 221.744 438.559 221.091 439.559 220.645C440.558 220.199 441.629 219.969 442.711 219.969L455.635 219.97L455.635 229.133Z" fill="#2F2E41"/>
<path d="M481.262 222.279L474.699 222.278L471.577 195.002L481.263 195.003L481.262 222.279Z" fill="#A0616A"/>
<path d="M482.935 229.133L461.775 229.132V228.844C461.775 227.679 461.988 226.525 462.402 225.448C462.816 224.371 463.422 223.393 464.187 222.569C464.952 221.744 465.86 221.091 466.859 220.645C467.858 220.199 468.929 219.969 470.011 219.969L482.936 219.97L482.935 229.133Z" fill="#2F2E41"/>
<path d="M480.951 216.469C480.852 216.469 480.754 216.462 480.657 216.449L471.05 215.175C470.488 215.101 469.967 214.816 469.581 214.369C469.195 213.922 468.967 213.342 468.939 212.732L466.14 144.806C466.13 144.613 466.061 144.429 465.943 144.284C465.826 144.138 465.666 144.039 465.491 144.003C465.315 143.966 465.133 143.994 464.973 144.081C464.813 144.169 464.686 144.312 464.61 144.487L457.419 170.318L455.938 211.811C455.925 212.169 455.844 212.52 455.699 212.842C455.554 213.165 455.349 213.451 455.097 213.684C454.844 213.917 454.549 214.09 454.231 214.195C453.914 214.299 453.579 214.331 453.249 214.289L444.93 213.234C444.335 213.16 443.788 212.85 443.394 212.364C443.001 211.877 442.79 211.25 442.803 210.605L443.51 171.548L449.146 110.238L449.398 110.249L483.669 111.672L483.36 213.882C483.358 214.569 483.103 215.227 482.651 215.712C482.2 216.197 481.588 216.469 480.951 216.469Z" fill="#2F2E41"/>
<path d="M482.37 117.274C482.349 117.274 482.328 117.274 482.307 117.274L447.791 116.299C447.453 116.29 447.12 116.204 446.815 116.046C446.51 115.889 446.239 115.664 446.02 115.386C445.8 115.108 445.638 114.784 445.543 114.434C445.448 114.084 445.422 113.716 445.468 113.355L452.1 60.7557C452.514 57.2041 453.619 53.7865 455.342 50.7261C457.065 47.6657 459.368 45.0313 462.1 42.9948C464.503 41.2122 467.232 40.0044 470.104 39.4526C472.976 38.9007 475.925 39.0176 478.752 39.7954C490.799 43.0849 498.027 57.0245 494.863 70.8689L484.709 115.3C484.578 115.862 484.277 116.361 483.854 116.719C483.43 117.076 482.908 117.272 482.37 117.274Z" fill="#3F3D56"/>
<path d="M437.089 75.5058C434.814 75.5088 432.588 74.7962 430.684 73.4555L410.556 59.2258C410.261 59.0176 410.012 58.7422 409.827 58.4192C409.642 58.0961 409.525 57.7332 409.484 57.3561C409.444 56.979 409.48 56.5968 409.591 56.2365C409.703 55.8762 409.886 55.5466 410.128 55.271L413.16 51.8215C413.491 51.4433 413.92 51.1813 414.391 51.0694C414.862 50.9576 415.353 51.0012 415.8 51.1945L438.284 60.8419L459.112 44.8148C460.086 44.0654 461.193 43.542 462.365 43.2778C463.536 43.0135 464.745 43.014 465.916 43.2794C467.088 43.5448 468.195 44.0692 469.168 44.8194C470.142 45.5697 470.96 46.5295 471.571 47.638C472.182 48.7466 472.573 49.9798 472.72 51.2597C472.866 52.5396 472.764 53.8382 472.42 55.0734C472.077 56.3086 471.499 57.4535 470.723 58.4357C469.948 59.4179 468.992 60.2159 467.915 60.7794L442.174 74.252C440.589 75.0792 438.85 75.5079 437.089 75.5058Z" fill="#3F3D56"/>
<path d="M482.312 33.8224C484.555 34.3931 487.261 34.831 488.864 33.0467C489.148 32.7098 489.402 32.3448 489.622 31.9565L491.718 28.5087C493.323 25.8675 494.957 23.1575 495.637 20.0863C496.027 18.3216 496.088 16.4908 495.817 14.7004C495.545 12.91 494.946 11.1956 494.054 9.65679C493.162 8.11801 491.995 6.78552 490.621 5.73672C489.248 4.68792 487.694 3.9437 486.051 3.54733C482.922 2.7924 479.86 1.49347 476.661 1.73041C473.462 1.96734 469.71 1.88956 467.025 0C467.193 0.842396 468.097 4.56447 468.097 4.56447C468.097 4.56447 464.06 8.55516 463.251 9.55025C464.311 9.044 465.464 8.80631 466.622 8.85543C467.781 8.90454 468.913 9.23917 469.933 9.83358C470.952 10.428 471.832 11.2664 472.504 12.2843C473.176 13.3022 473.622 14.4726 473.808 15.7054C474.038 17.22 473.903 18.8998 474.738 20.1429C475.532 21.3252 476.957 21.7395 478.154 22.4221C479.88 23.4816 481.198 25.1708 481.87 27.1851C482.542 29.1993 482.524 31.406 481.819 33.4072L482.312 33.8224Z" fill="#2F2E41"/>
<path d="M466.527 122.348H357.545C356.175 122.347 354.862 121.759 353.893 120.716C352.924 119.672 352.379 118.257 352.378 116.78V57.0526C352.379 55.5764 352.924 54.1612 353.893 53.1174C354.862 52.0736 356.175 51.4864 357.545 51.4847H466.527C467.897 51.4864 469.21 52.0736 470.179 53.1174C471.147 54.1612 471.692 55.5764 471.694 57.0526V116.78C471.692 118.257 471.147 119.672 470.179 120.716C469.21 121.759 467.897 122.347 466.527 122.348Z" fill="#CCCCCC"/>
<path d="M465.274 118.299H358.798C358.092 118.298 357.415 117.996 356.916 117.458C356.417 116.92 356.137 116.191 356.136 115.431V58.4025C356.137 57.642 356.417 56.9129 356.916 56.3752C357.415 55.8375 358.092 55.535 358.798 55.5342H465.274C465.98 55.535 466.656 55.8375 467.155 56.3752C467.654 56.9129 467.935 57.642 467.936 58.4025V115.431C467.935 116.191 467.654 116.92 467.155 117.458C466.656 117.996 465.98 118.298 465.274 118.299Z" fill="white"/>
<path d="M459.108 132.697L447.133 119.794L462.485 120.212V131.19C462.489 131.612 462.375 132.027 462.157 132.378C461.939 132.729 461.628 133.002 461.264 133.159C461.02 133.269 460.758 133.326 460.494 133.327C460.236 133.326 459.98 133.27 459.742 133.162C459.504 133.054 459.289 132.896 459.108 132.697Z" fill="#CCCCCC"/>
<path d="M452.31 84.3592H398.445C397.781 84.3592 397.144 84.0748 396.674 83.5685C396.204 83.0622 395.94 82.3756 395.94 81.6596C395.94 80.9437 396.204 80.257 396.674 79.7508C397.144 79.2445 397.781 78.9601 398.445 78.9601H452.31C452.974 78.9601 453.612 79.2445 454.081 79.7508C454.551 80.257 454.815 80.9437 454.815 81.6596C454.815 82.3756 454.551 83.0622 454.081 83.5685C453.612 84.0748 452.974 84.3592 452.31 84.3592Z" fill="#CCCCCC"/>
<path d="M434.773 72.8861H398.445C398.116 72.8866 397.79 72.8171 397.486 72.6817C397.181 72.5463 396.905 72.3475 396.671 72.0968C396.438 71.8461 396.254 71.5483 396.127 71.2205C396.001 70.8927 395.936 70.5413 395.936 70.1865C395.936 69.8316 396.001 69.4803 396.127 69.1525C396.254 68.8247 396.438 68.527 396.671 68.2762C396.905 68.0255 397.181 67.8267 397.486 67.6913C397.79 67.5559 398.116 67.4864 398.445 67.4869H434.773C435.437 67.4869 436.074 67.7714 436.544 68.2776C437.014 68.7839 437.278 69.4705 437.278 70.1865C437.278 70.9025 437.014 71.5891 436.544 72.0954C436.074 72.6016 435.437 72.8861 434.773 72.8861Z" fill="#CCCCCC"/>
<path d="M376.148 84.3592C380.472 84.3592 383.977 80.5822 383.977 75.9231C383.977 71.2639 380.472 67.4869 376.148 67.4869C371.824 67.4869 368.319 71.2639 368.319 75.9231C368.319 80.5822 371.824 84.3592 376.148 84.3592Z" fill="#FD7E14"/>
<path d="M435.71 106.346C437.094 106.346 438.216 105.137 438.216 103.647C438.216 102.156 437.094 100.947 435.71 100.947C434.327 100.947 433.205 102.156 433.205 103.647C433.205 105.137 434.327 106.346 435.71 106.346Z" fill="#E6E6E6"/>
<path d="M444.479 106.346C445.863 106.346 446.984 105.137 446.984 103.647C446.984 102.156 445.863 100.947 444.479 100.947C443.095 100.947 441.974 102.156 441.974 103.647C441.974 105.137 443.095 106.346 444.479 106.346Z" fill="#E6E6E6"/>
<path d="M453.248 106.346C454.631 106.346 455.753 105.137 455.753 103.647C455.753 102.156 454.631 100.947 453.248 100.947C451.864 100.947 450.742 102.156 450.742 103.647C450.742 105.137 451.864 106.346 453.248 106.346Z" fill="#E6E6E6"/>
<path d="M464.839 115.245C464.926 114.402 465.183 113.59 465.592 112.866C466.001 112.142 466.553 111.523 467.208 111.054C467.863 110.584 468.606 110.275 469.384 110.148C470.162 110.021 470.957 110.08 471.712 110.32L482.837 93.5522L486.405 103.55L475.293 117.939C474.835 119.279 473.937 120.391 472.769 121.065C471.601 121.739 470.244 121.928 468.955 121.596C467.667 121.263 466.536 120.434 465.777 119.263C465.019 118.093 464.685 116.663 464.839 115.245Z" fill="#A0616A"/>
<path d="M477.583 114.34C477.408 114.356 477.232 114.351 477.058 114.326C476.709 114.276 476.374 114.143 476.077 113.938C475.781 113.733 475.53 113.46 475.342 113.138L472.991 109.119C472.733 108.68 472.603 108.167 472.619 107.648C472.635 107.128 472.796 106.626 473.081 106.207L487.321 85.1228L478.066 59.4113C477.239 57.1491 477.27 54.6273 478.152 52.3897C479.035 50.152 480.698 48.3775 482.783 47.4488C483.962 46.9163 485.235 46.6718 486.511 46.7328C487.788 46.7938 489.036 47.1589 490.166 47.8018C491.295 48.4447 492.279 49.3494 493.046 50.4508C493.812 51.5522 494.343 52.823 494.599 54.1718L500.342 84.3808C500.741 86.5113 500.623 88.7167 500 90.7837C499.376 92.8507 498.268 94.7091 496.782 96.179L479.004 113.671C478.612 114.057 478.113 114.293 477.583 114.34Z" fill="#3F3D56"/>
<path d="M507.465 230.521H394.516C394.374 230.521 394.238 230.46 394.138 230.352C394.037 230.243 393.981 230.097 393.981 229.944C393.981 229.791 394.037 229.644 394.138 229.536C394.238 229.428 394.374 229.367 394.516 229.367H507.465C507.607 229.367 507.743 229.428 507.843 229.536C507.944 229.644 508 229.791 508 229.944C508 230.097 507.944 230.243 507.843 230.352C507.743 230.46 507.607 230.521 507.465 230.521Z" fill="#CCCCCC"/>
<path d="M137.367 86.9681H28.3859C27.016 86.9664 25.7026 86.3792 24.7338 85.3354C23.7651 84.2916 23.2202 82.8764 23.2187 81.4002V21.6725C23.2202 20.1963 23.7651 18.7811 24.7338 17.7372C25.7026 16.6934 27.016 16.1063 28.3859 16.1046H137.367C138.737 16.1063 140.051 16.6934 141.02 17.7372C141.988 18.7811 142.533 20.1963 142.535 21.6725V81.4002C142.533 82.8764 141.988 84.2916 141.02 85.3354C140.051 86.3792 138.737 86.9664 137.367 86.9681Z" fill="#CCCCCC"/>
<path d="M136.115 82.9187H29.6386C28.9329 82.9178 28.2562 82.6154 27.7572 82.0776C27.2582 81.5399 26.9775 80.8108 26.9767 80.0504V23.0222C26.9775 22.2618 27.2582 21.5327 27.7572 20.995C28.2562 20.4572 28.9329 20.1548 29.6386 20.1539H136.115C136.821 20.1548 137.497 20.4572 137.996 20.995C138.495 21.5327 138.776 22.2618 138.777 23.0222V80.0504C138.776 80.8108 138.495 81.5399 137.996 82.0776C137.497 82.6154 136.821 82.9178 136.115 82.9187Z" fill="white"/>
<path d="M129.948 97.317L117.974 84.4138L133.326 84.832V95.8095C133.33 96.2322 133.216 96.6463 132.998 96.9977C132.78 97.3492 132.469 97.6215 132.105 97.7792C131.861 97.8891 131.599 97.9461 131.335 97.9469C131.077 97.946 130.821 97.8898 130.583 97.7817C130.345 97.6736 130.129 97.5156 129.948 97.317Z" fill="#CCCCCC"/>
<path d="M123.151 48.979H69.2863C68.6218 48.979 67.9846 48.6945 67.5147 48.1883C67.0449 47.682 66.7809 46.9954 66.7809 46.2794C66.7809 45.5634 67.0449 44.8768 67.5147 44.3705C67.9846 43.8643 68.6218 43.5798 69.2863 43.5798H123.151C123.815 43.5798 124.452 43.8643 124.922 44.3705C125.392 44.8768 125.656 45.5634 125.656 46.2794C125.656 46.9954 125.392 47.682 124.922 48.1883C124.452 48.6945 123.815 48.979 123.151 48.979Z" fill="#CCCCCC"/>
<path d="M105.613 37.5058H69.2863C68.6218 37.5058 67.9846 37.2214 67.5147 36.7151C67.0449 36.2089 66.7809 35.5222 66.7809 34.8063C66.7809 34.0903 67.0449 33.4036 67.5147 32.8974C67.9846 32.3911 68.6218 32.1067 69.2863 32.1067H105.613C106.278 32.1067 106.915 32.3911 107.385 32.8974C107.855 33.4036 108.119 34.0903 108.119 34.8063C108.119 35.5222 107.855 36.2089 107.385 36.7151C106.915 37.2214 106.278 37.5058 105.613 37.5058Z" fill="#CCCCCC"/>
<path d="M46.9887 48.9789C51.3126 48.9789 54.8179 45.202 54.8179 40.5428C54.8179 35.8837 51.3126 32.1067 46.9887 32.1067C42.6648 32.1067 39.1596 35.8837 39.1596 40.5428C39.1596 45.202 42.6648 48.9789 46.9887 48.9789Z" fill="#FD7E14"/>
<path d="M106.551 70.9659C107.935 70.9659 109.057 69.7573 109.057 68.2663C109.057 66.7754 107.935 65.5668 106.551 65.5668C105.168 65.5668 104.046 66.7754 104.046 68.2663C104.046 69.7573 105.168 70.9659 106.551 70.9659Z" fill="#E6E6E6"/>
<path d="M115.32 70.9659C116.704 70.9659 117.825 69.7573 117.825 68.2663C117.825 66.7754 116.704 65.5668 115.32 65.5668C113.936 65.5668 112.815 66.7754 112.815 68.2663C112.815 69.7573 113.936 70.9659 115.32 70.9659Z" fill="#E6E6E6"/>
<path d="M124.088 70.9659C125.472 70.9659 126.594 69.7573 126.594 68.2663C126.594 66.7754 125.472 65.5668 124.088 65.5668C122.705 65.5668 121.583 66.7754 121.583 68.2663C121.583 69.7573 122.705 70.9659 124.088 70.9659Z" fill="#E6E6E6"/>
<path d="M132.848 10.3659C132.107 10.6531 131.434 11.1118 130.876 11.7095C130.318 12.3073 129.889 13.0297 129.618 13.8258C129.347 14.6219 129.241 15.4723 129.308 16.3172C129.375 17.162 129.613 17.9808 130.005 18.7158L117.469 34.2838L127.323 35.6904L137.717 20.6912C138.819 19.8989 139.614 18.6986 139.949 17.3175C140.285 15.9365 140.139 14.4708 139.539 13.198C138.938 11.9253 137.926 10.9341 136.693 10.4121C135.46 9.8901 134.092 9.87367 132.848 10.3659Z" fill="#FFB8B8"/>
<path d="M49.1396 16.5986C49.407 17.3961 49.5089 18.247 49.438 19.0915C49.3672 19.936 49.1254 20.7535 48.7296 21.4865C48.3339 22.2194 47.7938 22.8499 47.1475 23.3336C46.5011 23.8172 45.7642 24.1423 44.9886 24.2859L41.8688 44.6219L34.574 37.3458L38.655 19.15C38.5175 17.73 38.8681 16.3051 39.6404 15.1451C40.4128 13.9852 41.5532 13.1708 42.8456 12.8563C44.1379 12.5418 45.4925 12.749 46.6525 13.4388C47.8125 14.1285 48.6974 15.2528 49.1396 16.5986Z" fill="#FFB8B8"/>
<path d="M68.732 222.279L75.2948 222.278L78.4167 195.002L68.731 195.003L68.732 222.279Z" fill="#FFB8B8"/>
<path d="M67.0579 219.97L79.9821 219.969H79.9826C81.0643 219.969 82.1353 220.199 83.1346 220.645C84.1339 221.091 85.0418 221.744 85.8067 222.569C86.5715 223.393 87.1782 224.371 87.5921 225.448C88.006 226.525 88.219 227.679 88.219 228.844V229.132L67.0583 229.133L67.0579 219.97Z" fill="#2F2E41"/>
<path d="M35.0081 222.279L41.5709 222.278L44.6927 195.002L35.007 195.003L35.0081 222.279Z" fill="#FFB8B8"/>
<path d="M33.334 219.97L46.2582 219.969H46.2588C47.3404 219.969 48.4114 220.199 49.4107 220.645C50.41 221.091 51.318 221.744 52.0828 222.569C52.8476 223.393 53.4543 224.371 53.8682 225.448C54.2821 226.525 54.4952 227.679 54.4952 228.844V229.132L33.3344 229.133L33.334 219.97Z" fill="#2F2E41"/>
<path d="M67.362 36.0548C74.6232 36.0548 80.5095 29.7121 80.5095 21.8879C80.5095 14.0638 74.6232 7.72107 67.362 7.72107C60.1008 7.72107 54.2145 14.0638 54.2145 21.8879C54.2145 29.7121 60.1008 36.0548 67.362 36.0548Z" fill="#FFB8B8"/>
<path d="M65.786 213.217L64.699 138.576C64.6962 138.365 64.6219 138.162 64.4902 138.006C64.3584 137.85 64.1783 137.751 63.9836 137.728C63.7889 137.705 63.5932 137.759 63.4332 137.881C63.2732 138.003 63.16 138.183 63.1149 138.389L45.2942 211.398C45.1601 211.982 44.8439 212.499 44.3985 212.862C43.9532 213.226 43.4056 213.413 42.8473 213.393L33.0567 212.942C32.7239 212.927 32.3976 212.837 32.0985 212.679C31.7995 212.521 31.5341 212.297 31.3192 212.023C31.1043 211.749 30.9445 211.429 30.85 211.085C30.7554 210.741 30.7282 210.379 30.7699 210.023L45.8915 116.202L45.9224 115.937L88.041 118.084L88.3157 118.098L79.2839 213.373C79.2365 214.026 78.9632 214.635 78.5182 215.08C78.0732 215.525 77.4891 215.774 76.8819 215.776H68.1946C67.5624 215.774 66.9563 215.504 66.5061 215.026C66.0559 214.548 65.7975 213.899 65.786 213.217Z" fill="#2F2E41"/>
<path d="M99.0522 124.407L37.9328 119.002C37.5639 118.97 37.2069 118.846 36.8896 118.64C36.5722 118.435 36.3031 118.154 36.1031 117.818C35.903 117.483 35.7774 117.102 35.7361 116.706C35.6947 116.309 35.7387 115.908 35.8646 115.533L45.4897 86.8589L46.0436 52.8259C46.0637 51.5905 46.3112 50.3717 46.7719 49.2401C47.2325 48.1086 47.8971 47.0869 48.727 46.2342C49.557 45.3816 50.5358 44.715 51.6067 44.2731C52.6776 43.8313 53.8192 43.6229 54.9654 43.6602L59.03 39.6902H73.9218L75.2185 41.522L85.5804 43.2377C87.426 43.5517 89.1291 44.4968 90.438 45.9335C91.747 47.3703 92.5926 49.2225 92.8498 51.2166L101.636 121.474C101.682 121.84 101.655 122.213 101.556 122.567C101.457 122.921 101.289 123.249 101.063 123.527C100.838 123.806 100.559 124.029 100.247 124.183C99.9346 124.336 99.5955 124.415 99.2523 124.416C99.1859 124.416 99.1191 124.413 99.0522 124.407Z" fill="#2F2E41"/>
<path d="M87.1438 46.5369L113.204 38.3096L124.998 21.5778C125.323 21.117 125.781 20.7863 126.3 20.6383C126.82 20.4903 127.37 20.5335 127.863 20.7611L135.227 24.1526C135.541 24.2972 135.823 24.512 136.054 24.7829C136.285 25.0538 136.46 25.3745 136.567 25.7237C136.674 26.073 136.712 26.4428 136.676 26.8087C136.641 27.1746 136.533 27.5282 136.361 27.846L127.547 44.1441C126.112 46.8101 123.928 48.9155 121.309 50.156L90.6572 64.7563L87.1438 46.5369Z" fill="#2F2E41"/>
<path d="M37.146 58.8441C35.5886 57.6352 34.3467 56.0141 33.54 54.1374C32.7333 52.2607 32.389 50.1917 32.5404 48.1299L33.6841 31.802C33.7312 31.1498 34.0046 30.5407 34.4498 30.096C34.8949 29.6512 35.4792 29.4034 36.0863 29.4019H36.1076L44.7429 29.4847C45.0967 29.4881 45.4454 29.5755 45.7643 29.7406C46.0832 29.9057 46.3644 30.1444 46.588 30.4398C46.8116 30.7352 46.9721 31.08 47.0581 31.4498C47.144 31.8196 47.1534 32.2052 47.0854 32.5793L45.4832 41.388L56.9173 46.5938L47.2888 66.7779L37.146 58.8441Z" fill="#2F2E41"/>
<path d="M75.0105 4.90051C75.0105 4.90051 61.2613 -3.07678 53.7671 6.33813C46.2729 15.753 56.6223 30.4759 56.6223 30.4759L71.3687 32.4799C71.3687 32.4799 71.9041 21.6785 75.4151 21.8882C78.9261 22.0979 89.8303 8.46802 75.0105 4.90051Z" fill="#2F2E41"/>
<path d="M113.484 229.944H0.5353C0.39333 229.944 0.257174 229.883 0.156785 229.775C0.0563972 229.667 0 229.52 0 229.367C0 229.214 0.0563972 229.067 0.156785 228.959C0.257174 228.851 0.39333 228.79 0.5353 228.79H113.484C113.626 228.79 113.762 228.851 113.862 228.959C113.963 229.067 114.019 229.214 114.019 229.367C114.019 229.52 113.963 229.667 113.862 229.775C113.762 229.883 113.626 229.944 113.484 229.944Z" fill="#CCCCCC"/>
</g>
<defs>
<clipPath id="clip0_403_777">
<rect width="508" height="328" fill="white"/>
</clipPath>
</defs>
</svg>
